<svg xmlns="http://www.w3.org/2000/svg" xmlns:xlink="http://www.w3.org/1999/xlink" version="1.1" x="0px" y="0px" viewBox="0 0 692.2 928" style="enable-background:new 0 0 692.2 928;" xml:space="preserve">
<path d="M692.2,125.5v772.1c0,11.4-3.5,19.3-10.5,23.8c-7,4.4-13.6,6.7-20,6.7H32.3C10.8,928,0,918.5,0,899.5V22.8  C0,15.2,2.5,9.5,7.6,5.7S17.7,0,22.8,0h545.8H580c2.5,0,5.1,1.9,7.6,5.7l95.1,100.8C689,112.8,692.2,119.2,692.2,125.5z   M207.3,427.9c-6.3-3.8-9.5-10.1-9.5-19s3.5-14.9,10.5-18.1s14.3-4.8,21.9-4.8c16.5,1.3,30.4,8.2,41.8,20.9l36.1-38  c-11.4-10.1-23.8-17.4-37.1-21.9c-13.3-4.4-26.9-6.7-40.9-6.7c-22.8,0-43.1,5.7-60.9,17.1s-27.3,29.8-28.5,55.1  c0,21.6,6,37.1,18.1,46.6c12,9.5,25.7,16.5,40.9,20.9c15.2,4.4,27.3,8.9,36.1,13.3c8.9,4.4,13.3,11.4,13.3,20.9  c0,9.5-3.2,16.2-9.5,20c-6.3,3.8-14.3,5.7-23.8,5.7s-18.7-2.5-27.6-7.6s-16.5-10.8-22.8-17.1l-36.1,36.1c10.1,11.4,22.8,20,38,25.7  c15.2,5.7,31.7,8.6,49.4,8.6c24.1,0,44.7-6.3,61.8-19c17.1-12.7,26.3-32.3,27.6-59c-1.3-22.8-9.5-39-24.7-48.5  c-15.2-9.5-31.1-16.8-47.5-21.9C222.5,434.8,213.6,431.7,207.3,427.9z M520.1,551.5c26-19,40.3-48.8,42.8-89.4  c-2.5-43.1-16.8-73.5-42.8-91.3c-26-17.7-56.7-26-92.2-24.7h-83.7V580h85.6C464,580,494.1,570.5,520.1,551.5z M479.2,408.9  c15.2,10.1,22.8,27.9,22.8,53.2c0,25.4-7.6,43.4-22.8,54.2c-15.2,10.8-33,15.5-53.2,14.3h-26.6V393.6H426  C446.3,393.6,464,398.7,479.2,408.9z"/>
</svg>